<mxfile host="app.diagrams.net" modified="2024-02-28T01:14:40.155Z" agent="Mozilla/5.0 (Windows NT 10.0; Win64; x64) AppleWebKit/537.36 (KHTML, like Gecko) Chrome/120.0.0.0 Safari/537.36 Edg/120.0.0.0" etag="D6bK5pNwu78pc6RUCPhT" version="21.7.2" type="device">
  <diagram id="C5RBs43oDa-KdzZeNtuy" name="Page-1">
    <mxGraphModel dx="1386" dy="1962" grid="1" gridSize="10" guides="1" tooltips="1" connect="1" arrows="1" fold="1" page="1" pageScale="1" pageWidth="827" pageHeight="1169" math="0" shadow="0">
      <root>
        <mxCell id="WIyWlLk6GJQsqaUBKTNV-0" />
        <mxCell id="WIyWlLk6GJQsqaUBKTNV-1" parent="WIyWlLk6GJQsqaUBKTNV-0" />
        <mxCell id="zkfFHV4jXpPFQw0GAbJ--0" value="person" style="swimlane;fontStyle=2;align=center;verticalAlign=top;childLayout=stackLayout;horizontal=1;startSize=26;horizontalStack=0;resizeParent=1;resizeLast=0;collapsible=1;marginBottom=0;rounded=0;shadow=0;strokeWidth=1;" parent="WIyWlLk6GJQsqaUBKTNV-1" vertex="1">
          <mxGeometry x="80" y="40" width="170" height="380" as="geometry">
            <mxRectangle x="230" y="140" width="160" height="26" as="alternateBounds" />
          </mxGeometry>
        </mxCell>
        <mxCell id="zkfFHV4jXpPFQw0GAbJ--1" value="id" style="text;align=left;verticalAlign=top;spacingLeft=4;spacingRight=4;overflow=hidden;rotatable=0;points=[[0,0.5],[1,0.5]];portConstraint=eastwest;" parent="zkfFHV4jXpPFQw0GAbJ--0" vertex="1">
          <mxGeometry y="26" width="170" height="26" as="geometry" />
        </mxCell>
        <mxCell id="zkfFHV4jXpPFQw0GAbJ--2" value="name" style="text;align=left;verticalAlign=top;spacingLeft=4;spacingRight=4;overflow=hidden;rotatable=0;points=[[0,0.5],[1,0.5]];portConstraint=eastwest;rounded=0;shadow=0;html=0;" parent="zkfFHV4jXpPFQw0GAbJ--0" vertex="1">
          <mxGeometry y="52" width="170" height="26" as="geometry" />
        </mxCell>
        <mxCell id="zkfFHV4jXpPFQw0GAbJ--3" value="lastName" style="text;align=left;verticalAlign=top;spacingLeft=4;spacingRight=4;overflow=hidden;rotatable=0;points=[[0,0.5],[1,0.5]];portConstraint=eastwest;rounded=0;shadow=0;html=0;" parent="zkfFHV4jXpPFQw0GAbJ--0" vertex="1">
          <mxGeometry y="78" width="170" height="26" as="geometry" />
        </mxCell>
        <mxCell id="zkfFHV4jXpPFQw0GAbJ--5" value="dni" style="text;align=left;verticalAlign=top;spacingLeft=4;spacingRight=4;overflow=hidden;rotatable=0;points=[[0,0.5],[1,0.5]];portConstraint=eastwest;" parent="zkfFHV4jXpPFQw0GAbJ--0" vertex="1">
          <mxGeometry y="104" width="170" height="26" as="geometry" />
        </mxCell>
        <mxCell id="VMvvwazO_1boUIIF1eFx-0" value="email" style="text;align=left;verticalAlign=top;spacingLeft=4;spacingRight=4;overflow=hidden;rotatable=0;points=[[0,0.5],[1,0.5]];portConstraint=eastwest;rounded=0;shadow=0;html=0;" parent="zkfFHV4jXpPFQw0GAbJ--0" vertex="1">
          <mxGeometry y="130" width="170" height="26" as="geometry" />
        </mxCell>
        <mxCell id="VMvvwazO_1boUIIF1eFx-2" value="telephone" style="text;align=left;verticalAlign=top;spacingLeft=4;spacingRight=4;overflow=hidden;rotatable=0;points=[[0,0.5],[1,0.5]];portConstraint=eastwest;rounded=0;shadow=0;html=0;" parent="zkfFHV4jXpPFQw0GAbJ--0" vertex="1">
          <mxGeometry y="156" width="170" height="26" as="geometry" />
        </mxCell>
        <mxCell id="VMvvwazO_1boUIIF1eFx-3" value="typeCustomer" style="text;align=left;verticalAlign=top;spacingLeft=4;spacingRight=4;overflow=hidden;rotatable=0;points=[[0,0.5],[1,0.5]];portConstraint=eastwest;rounded=0;shadow=0;html=0;" parent="zkfFHV4jXpPFQw0GAbJ--0" vertex="1">
          <mxGeometry y="182" width="170" height="26" as="geometry" />
        </mxCell>
        <mxCell id="zkfFHV4jXpPFQw0GAbJ--4" value="" style="line;html=1;strokeWidth=1;align=left;verticalAlign=middle;spacingTop=-1;spacingLeft=3;spacingRight=3;rotatable=0;labelPosition=right;points=[];portConstraint=eastwest;" parent="zkfFHV4jXpPFQw0GAbJ--0" vertex="1">
          <mxGeometry y="208" width="170" height="8" as="geometry" />
        </mxCell>
        <mxCell id="VMvvwazO_1boUIIF1eFx-1" value="getAll()" style="text;align=left;verticalAlign=top;spacingLeft=4;spacingRight=4;overflow=hidden;rotatable=0;points=[[0,0.5],[1,0.5]];portConstraint=eastwest;rounded=0;shadow=0;html=0;" parent="zkfFHV4jXpPFQw0GAbJ--0" vertex="1">
          <mxGeometry y="216" width="170" height="26" as="geometry" />
        </mxCell>
        <mxCell id="VMvvwazO_1boUIIF1eFx-4" value="getPersonById()" style="text;align=left;verticalAlign=top;spacingLeft=4;spacingRight=4;overflow=hidden;rotatable=0;points=[[0,0.5],[1,0.5]];portConstraint=eastwest;rounded=0;shadow=0;html=0;" parent="zkfFHV4jXpPFQw0GAbJ--0" vertex="1">
          <mxGeometry y="242" width="170" height="26" as="geometry" />
        </mxCell>
        <mxCell id="VMvvwazO_1boUIIF1eFx-5" value="createPerson()" style="text;align=left;verticalAlign=top;spacingLeft=4;spacingRight=4;overflow=hidden;rotatable=0;points=[[0,0.5],[1,0.5]];portConstraint=eastwest;rounded=0;shadow=0;html=0;" parent="zkfFHV4jXpPFQw0GAbJ--0" vertex="1">
          <mxGeometry y="268" width="170" height="26" as="geometry" />
        </mxCell>
        <mxCell id="VMvvwazO_1boUIIF1eFx-6" value="updatePerson()" style="text;align=left;verticalAlign=top;spacingLeft=4;spacingRight=4;overflow=hidden;rotatable=0;points=[[0,0.5],[1,0.5]];portConstraint=eastwest;rounded=0;shadow=0;html=0;" parent="zkfFHV4jXpPFQw0GAbJ--0" vertex="1">
          <mxGeometry y="294" width="170" height="26" as="geometry" />
        </mxCell>
        <mxCell id="VMvvwazO_1boUIIF1eFx-7" value="deletePerson()" style="text;align=left;verticalAlign=top;spacingLeft=4;spacingRight=4;overflow=hidden;rotatable=0;points=[[0,0.5],[1,0.5]];portConstraint=eastwest;rounded=0;shadow=0;html=0;" parent="zkfFHV4jXpPFQw0GAbJ--0" vertex="1">
          <mxGeometry y="320" width="170" height="26" as="geometry" />
        </mxCell>
        <mxCell id="zkfFHV4jXpPFQw0GAbJ--17" value="company" style="swimlane;fontStyle=0;align=center;verticalAlign=top;childLayout=stackLayout;horizontal=1;startSize=26;horizontalStack=0;resizeParent=1;resizeLast=0;collapsible=1;marginBottom=0;rounded=0;shadow=0;strokeWidth=1;" parent="WIyWlLk6GJQsqaUBKTNV-1" vertex="1">
          <mxGeometry x="310" y="40" width="180" height="398" as="geometry">
            <mxRectangle x="550" y="140" width="160" height="26" as="alternateBounds" />
          </mxGeometry>
        </mxCell>
        <mxCell id="zkfFHV4jXpPFQw0GAbJ--18" value="id" style="text;align=left;verticalAlign=top;spacingLeft=4;spacingRight=4;overflow=hidden;rotatable=0;points=[[0,0.5],[1,0.5]];portConstraint=eastwest;" parent="zkfFHV4jXpPFQw0GAbJ--17" vertex="1">
          <mxGeometry y="26" width="180" height="26" as="geometry" />
        </mxCell>
        <mxCell id="zkfFHV4jXpPFQw0GAbJ--19" value="businessName" style="text;align=left;verticalAlign=top;spacingLeft=4;spacingRight=4;overflow=hidden;rotatable=0;points=[[0,0.5],[1,0.5]];portConstraint=eastwest;rounded=0;shadow=0;html=0;" parent="zkfFHV4jXpPFQw0GAbJ--17" vertex="1">
          <mxGeometry y="52" width="180" height="26" as="geometry" />
        </mxCell>
        <mxCell id="zkfFHV4jXpPFQw0GAbJ--20" value="ruc" style="text;align=left;verticalAlign=top;spacingLeft=4;spacingRight=4;overflow=hidden;rotatable=0;points=[[0,0.5],[1,0.5]];portConstraint=eastwest;rounded=0;shadow=0;html=0;" parent="zkfFHV4jXpPFQw0GAbJ--17" vertex="1">
          <mxGeometry y="78" width="180" height="26" as="geometry" />
        </mxCell>
        <mxCell id="zkfFHV4jXpPFQw0GAbJ--21" value="email" style="text;align=left;verticalAlign=top;spacingLeft=4;spacingRight=4;overflow=hidden;rotatable=0;points=[[0,0.5],[1,0.5]];portConstraint=eastwest;rounded=0;shadow=0;html=0;" parent="zkfFHV4jXpPFQw0GAbJ--17" vertex="1">
          <mxGeometry y="104" width="180" height="26" as="geometry" />
        </mxCell>
        <mxCell id="zkfFHV4jXpPFQw0GAbJ--22" value="telephone" style="text;align=left;verticalAlign=top;spacingLeft=4;spacingRight=4;overflow=hidden;rotatable=0;points=[[0,0.5],[1,0.5]];portConstraint=eastwest;rounded=0;shadow=0;html=0;" parent="zkfFHV4jXpPFQw0GAbJ--17" vertex="1">
          <mxGeometry y="130" width="180" height="26" as="geometry" />
        </mxCell>
        <mxCell id="VMvvwazO_1boUIIF1eFx-20" value="telephone" style="text;align=left;verticalAlign=top;spacingLeft=4;spacingRight=4;overflow=hidden;rotatable=0;points=[[0,0.5],[1,0.5]];portConstraint=eastwest;rounded=0;shadow=0;html=0;" parent="zkfFHV4jXpPFQw0GAbJ--17" vertex="1">
          <mxGeometry y="156" width="180" height="26" as="geometry" />
        </mxCell>
        <mxCell id="VMvvwazO_1boUIIF1eFx-21" value="headlines" style="text;align=left;verticalAlign=top;spacingLeft=4;spacingRight=4;overflow=hidden;rotatable=0;points=[[0,0.5],[1,0.5]];portConstraint=eastwest;rounded=0;shadow=0;html=0;" parent="zkfFHV4jXpPFQw0GAbJ--17" vertex="1">
          <mxGeometry y="182" width="180" height="26" as="geometry" />
        </mxCell>
        <mxCell id="VMvvwazO_1boUIIF1eFx-22" value="signatories" style="text;align=left;verticalAlign=top;spacingLeft=4;spacingRight=4;overflow=hidden;rotatable=0;points=[[0,0.5],[1,0.5]];portConstraint=eastwest;rounded=0;shadow=0;html=0;" parent="zkfFHV4jXpPFQw0GAbJ--17" vertex="1">
          <mxGeometry y="208" width="180" height="26" as="geometry" />
        </mxCell>
        <mxCell id="zkfFHV4jXpPFQw0GAbJ--23" value="" style="line;html=1;strokeWidth=1;align=left;verticalAlign=middle;spacingTop=-1;spacingLeft=3;spacingRight=3;rotatable=0;labelPosition=right;points=[];portConstraint=eastwest;" parent="zkfFHV4jXpPFQw0GAbJ--17" vertex="1">
          <mxGeometry y="234" width="180" height="8" as="geometry" />
        </mxCell>
        <mxCell id="zkfFHV4jXpPFQw0GAbJ--24" value="getAll()" style="text;align=left;verticalAlign=top;spacingLeft=4;spacingRight=4;overflow=hidden;rotatable=0;points=[[0,0.5],[1,0.5]];portConstraint=eastwest;" parent="zkfFHV4jXpPFQw0GAbJ--17" vertex="1">
          <mxGeometry y="242" width="180" height="26" as="geometry" />
        </mxCell>
        <mxCell id="VMvvwazO_1boUIIF1eFx-23" value="getCompanyById()" style="text;align=left;verticalAlign=top;spacingLeft=4;spacingRight=4;overflow=hidden;rotatable=0;points=[[0,0.5],[1,0.5]];portConstraint=eastwest;" parent="zkfFHV4jXpPFQw0GAbJ--17" vertex="1">
          <mxGeometry y="268" width="180" height="26" as="geometry" />
        </mxCell>
        <mxCell id="VMvvwazO_1boUIIF1eFx-24" value="createCompany()" style="text;align=left;verticalAlign=top;spacingLeft=4;spacingRight=4;overflow=hidden;rotatable=0;points=[[0,0.5],[1,0.5]];portConstraint=eastwest;" parent="zkfFHV4jXpPFQw0GAbJ--17" vertex="1">
          <mxGeometry y="294" width="180" height="26" as="geometry" />
        </mxCell>
        <mxCell id="VMvvwazO_1boUIIF1eFx-25" value="updateCompany()" style="text;align=left;verticalAlign=top;spacingLeft=4;spacingRight=4;overflow=hidden;rotatable=0;points=[[0,0.5],[1,0.5]];portConstraint=eastwest;" parent="zkfFHV4jXpPFQw0GAbJ--17" vertex="1">
          <mxGeometry y="320" width="180" height="26" as="geometry" />
        </mxCell>
        <mxCell id="VMvvwazO_1boUIIF1eFx-28" value="deleteCompany()" style="text;align=left;verticalAlign=top;spacingLeft=4;spacingRight=4;overflow=hidden;rotatable=0;points=[[0,0.5],[1,0.5]];portConstraint=eastwest;" parent="zkfFHV4jXpPFQw0GAbJ--17" vertex="1">
          <mxGeometry y="346" width="180" height="26" as="geometry" />
        </mxCell>
        <mxCell id="VMvvwazO_1boUIIF1eFx-36" value="account" style="swimlane;fontStyle=0;align=center;verticalAlign=top;childLayout=stackLayout;horizontal=1;startSize=26;horizontalStack=0;resizeParent=1;resizeLast=0;collapsible=1;marginBottom=0;rounded=0;shadow=0;strokeWidth=1;" parent="WIyWlLk6GJQsqaUBKTNV-1" vertex="1">
          <mxGeometry x="540" y="40" width="180" height="580" as="geometry">
            <mxRectangle x="550" y="140" width="160" height="26" as="alternateBounds" />
          </mxGeometry>
        </mxCell>
        <mxCell id="VMvvwazO_1boUIIF1eFx-37" value="id" style="text;align=left;verticalAlign=top;spacingLeft=4;spacingRight=4;overflow=hidden;rotatable=0;points=[[0,0.5],[1,0.5]];portConstraint=eastwest;" parent="VMvvwazO_1boUIIF1eFx-36" vertex="1">
          <mxGeometry y="26" width="180" height="26" as="geometry" />
        </mxCell>
        <mxCell id="VMvvwazO_1boUIIF1eFx-38" value="customerId" style="text;align=left;verticalAlign=top;spacingLeft=4;spacingRight=4;overflow=hidden;rotatable=0;points=[[0,0.5],[1,0.5]];portConstraint=eastwest;rounded=0;shadow=0;html=0;" parent="VMvvwazO_1boUIIF1eFx-36" vertex="1">
          <mxGeometry y="52" width="180" height="26" as="geometry" />
        </mxCell>
        <mxCell id="VMvvwazO_1boUIIF1eFx-39" value="typeAccount" style="text;align=left;verticalAlign=top;spacingLeft=4;spacingRight=4;overflow=hidden;rotatable=0;points=[[0,0.5],[1,0.5]];portConstraint=eastwest;rounded=0;shadow=0;html=0;" parent="VMvvwazO_1boUIIF1eFx-36" vertex="1">
          <mxGeometry y="78" width="180" height="26" as="geometry" />
        </mxCell>
        <mxCell id="VMvvwazO_1boUIIF1eFx-40" value="descriptTypeAccount" style="text;align=left;verticalAlign=top;spacingLeft=4;spacingRight=4;overflow=hidden;rotatable=0;points=[[0,0.5],[1,0.5]];portConstraint=eastwest;rounded=0;shadow=0;html=0;" parent="VMvvwazO_1boUIIF1eFx-36" vertex="1">
          <mxGeometry y="104" width="180" height="26" as="geometry" />
        </mxCell>
        <mxCell id="VMvvwazO_1boUIIF1eFx-41" value="amount" style="text;align=left;verticalAlign=top;spacingLeft=4;spacingRight=4;overflow=hidden;rotatable=0;points=[[0,0.5],[1,0.5]];portConstraint=eastwest;rounded=0;shadow=0;html=0;" parent="VMvvwazO_1boUIIF1eFx-36" vertex="1">
          <mxGeometry y="130" width="180" height="26" as="geometry" />
        </mxCell>
        <mxCell id="VMvvwazO_1boUIIF1eFx-42" value="maintance" style="text;align=left;verticalAlign=top;spacingLeft=4;spacingRight=4;overflow=hidden;rotatable=0;points=[[0,0.5],[1,0.5]];portConstraint=eastwest;rounded=0;shadow=0;html=0;" parent="VMvvwazO_1boUIIF1eFx-36" vertex="1">
          <mxGeometry y="156" width="180" height="26" as="geometry" />
        </mxCell>
        <mxCell id="VMvvwazO_1boUIIF1eFx-43" value="transaction" style="text;align=left;verticalAlign=top;spacingLeft=4;spacingRight=4;overflow=hidden;rotatable=0;points=[[0,0.5],[1,0.5]];portConstraint=eastwest;rounded=0;shadow=0;html=0;" parent="VMvvwazO_1boUIIF1eFx-36" vertex="1">
          <mxGeometry y="182" width="180" height="26" as="geometry" />
        </mxCell>
        <mxCell id="VMvvwazO_1boUIIF1eFx-44" value="operationDay" style="text;align=left;verticalAlign=top;spacingLeft=4;spacingRight=4;overflow=hidden;rotatable=0;points=[[0,0.5],[1,0.5]];portConstraint=eastwest;rounded=0;shadow=0;html=0;" parent="VMvvwazO_1boUIIF1eFx-36" vertex="1">
          <mxGeometry y="208" width="180" height="26" as="geometry" />
        </mxCell>
        <mxCell id="VMvvwazO_1boUIIF1eFx-52" value="dateAccount" style="text;align=left;verticalAlign=top;spacingLeft=4;spacingRight=4;overflow=hidden;rotatable=0;points=[[0,0.5],[1,0.5]];portConstraint=eastwest;rounded=0;shadow=0;html=0;" parent="VMvvwazO_1boUIIF1eFx-36" vertex="1">
          <mxGeometry y="234" width="180" height="26" as="geometry" />
        </mxCell>
        <mxCell id="VMvvwazO_1boUIIF1eFx-53" value="numberAccount" style="text;align=left;verticalAlign=top;spacingLeft=4;spacingRight=4;overflow=hidden;rotatable=0;points=[[0,0.5],[1,0.5]];portConstraint=eastwest;rounded=0;shadow=0;html=0;" parent="VMvvwazO_1boUIIF1eFx-36" vertex="1">
          <mxGeometry y="260" width="180" height="26" as="geometry" />
        </mxCell>
        <mxCell id="VMvvwazO_1boUIIF1eFx-54" value="typeCustomer" style="text;align=left;verticalAlign=top;spacingLeft=4;spacingRight=4;overflow=hidden;rotatable=0;points=[[0,0.5],[1,0.5]];portConstraint=eastwest;rounded=0;shadow=0;html=0;" parent="VMvvwazO_1boUIIF1eFx-36" vertex="1">
          <mxGeometry y="286" width="180" height="26" as="geometry" />
        </mxCell>
        <mxCell id="VMvvwazO_1boUIIF1eFx-45" value="" style="line;html=1;strokeWidth=1;align=left;verticalAlign=middle;spacingTop=-1;spacingLeft=3;spacingRight=3;rotatable=0;labelPosition=right;points=[];portConstraint=eastwest;" parent="VMvvwazO_1boUIIF1eFx-36" vertex="1">
          <mxGeometry y="312" width="180" height="8" as="geometry" />
        </mxCell>
        <mxCell id="VMvvwazO_1boUIIF1eFx-46" value="getAll()" style="text;align=left;verticalAlign=top;spacingLeft=4;spacingRight=4;overflow=hidden;rotatable=0;points=[[0,0.5],[1,0.5]];portConstraint=eastwest;" parent="VMvvwazO_1boUIIF1eFx-36" vertex="1">
          <mxGeometry y="320" width="180" height="26" as="geometry" />
        </mxCell>
        <mxCell id="VMvvwazO_1boUIIF1eFx-47" value="getAccountById()" style="text;align=left;verticalAlign=top;spacingLeft=4;spacingRight=4;overflow=hidden;rotatable=0;points=[[0,0.5],[1,0.5]];portConstraint=eastwest;" parent="VMvvwazO_1boUIIF1eFx-36" vertex="1">
          <mxGeometry y="346" width="180" height="26" as="geometry" />
        </mxCell>
        <mxCell id="VMvvwazO_1boUIIF1eFx-48" value="createAccountPerson()" style="text;align=left;verticalAlign=top;spacingLeft=4;spacingRight=4;overflow=hidden;rotatable=0;points=[[0,0.5],[1,0.5]];portConstraint=eastwest;" parent="VMvvwazO_1boUIIF1eFx-36" vertex="1">
          <mxGeometry y="372" width="180" height="26" as="geometry" />
        </mxCell>
        <mxCell id="VMvvwazO_1boUIIF1eFx-49" value="createAccountCompany()" style="text;align=left;verticalAlign=top;spacingLeft=4;spacingRight=4;overflow=hidden;rotatable=0;points=[[0,0.5],[1,0.5]];portConstraint=eastwest;" parent="VMvvwazO_1boUIIF1eFx-36" vertex="1">
          <mxGeometry y="398" width="180" height="26" as="geometry" />
        </mxCell>
        <mxCell id="VMvvwazO_1boUIIF1eFx-50" value="updateAccount()" style="text;align=left;verticalAlign=top;spacingLeft=4;spacingRight=4;overflow=hidden;rotatable=0;points=[[0,0.5],[1,0.5]];portConstraint=eastwest;" parent="VMvvwazO_1boUIIF1eFx-36" vertex="1">
          <mxGeometry y="424" width="180" height="26" as="geometry" />
        </mxCell>
        <mxCell id="VMvvwazO_1boUIIF1eFx-51" value="deleteAccount()" style="text;align=left;verticalAlign=top;spacingLeft=4;spacingRight=4;overflow=hidden;rotatable=0;points=[[0,0.5],[1,0.5]];portConstraint=eastwest;" parent="VMvvwazO_1boUIIF1eFx-36" vertex="1">
          <mxGeometry y="450" width="180" height="26" as="geometry" />
        </mxCell>
        <mxCell id="VMvvwazO_1boUIIF1eFx-55" value="depositAccount()" style="text;align=left;verticalAlign=top;spacingLeft=4;spacingRight=4;overflow=hidden;rotatable=0;points=[[0,0.5],[1,0.5]];portConstraint=eastwest;" parent="VMvvwazO_1boUIIF1eFx-36" vertex="1">
          <mxGeometry y="476" width="180" height="26" as="geometry" />
        </mxCell>
        <mxCell id="VMvvwazO_1boUIIF1eFx-56" value="withdrawalAccount()" style="text;align=left;verticalAlign=top;spacingLeft=4;spacingRight=4;overflow=hidden;rotatable=0;points=[[0,0.5],[1,0.5]];portConstraint=eastwest;" parent="VMvvwazO_1boUIIF1eFx-36" vertex="1">
          <mxGeometry y="502" width="180" height="26" as="geometry" />
        </mxCell>
        <mxCell id="VMvvwazO_1boUIIF1eFx-57" value="getAllAccountXCustomerId()" style="text;align=left;verticalAlign=top;spacingLeft=4;spacingRight=4;overflow=hidden;rotatable=0;points=[[0,0.5],[1,0.5]];portConstraint=eastwest;" parent="VMvvwazO_1boUIIF1eFx-36" vertex="1">
          <mxGeometry y="528" width="180" height="26" as="geometry" />
        </mxCell>
        <mxCell id="VMvvwazO_1boUIIF1eFx-58" value="restartTransactions()" style="text;align=left;verticalAlign=top;spacingLeft=4;spacingRight=4;overflow=hidden;rotatable=0;points=[[0,0.5],[1,0.5]];portConstraint=eastwest;" parent="VMvvwazO_1boUIIF1eFx-36" vertex="1">
          <mxGeometry y="554" width="180" height="26" as="geometry" />
        </mxCell>
        <mxCell id="VMvvwazO_1boUIIF1eFx-59" value="credit" style="swimlane;fontStyle=0;align=center;verticalAlign=top;childLayout=stackLayout;horizontal=1;startSize=26;horizontalStack=0;resizeParent=1;resizeLast=0;collapsible=1;marginBottom=0;rounded=0;shadow=0;strokeWidth=1;" parent="WIyWlLk6GJQsqaUBKTNV-1" vertex="1">
          <mxGeometry x="750" y="40" width="180" height="460" as="geometry">
            <mxRectangle x="550" y="140" width="160" height="26" as="alternateBounds" />
          </mxGeometry>
        </mxCell>
        <mxCell id="VMvvwazO_1boUIIF1eFx-60" value="id" style="text;align=left;verticalAlign=top;spacingLeft=4;spacingRight=4;overflow=hidden;rotatable=0;points=[[0,0.5],[1,0.5]];portConstraint=eastwest;" parent="VMvvwazO_1boUIIF1eFx-59" vertex="1">
          <mxGeometry y="26" width="180" height="26" as="geometry" />
        </mxCell>
        <mxCell id="VMvvwazO_1boUIIF1eFx-61" value="customerId" style="text;align=left;verticalAlign=top;spacingLeft=4;spacingRight=4;overflow=hidden;rotatable=0;points=[[0,0.5],[1,0.5]];portConstraint=eastwest;rounded=0;shadow=0;html=0;" parent="VMvvwazO_1boUIIF1eFx-59" vertex="1">
          <mxGeometry y="52" width="180" height="26" as="geometry" />
        </mxCell>
        <mxCell id="VMvvwazO_1boUIIF1eFx-62" value="typeAccount" style="text;align=left;verticalAlign=top;spacingLeft=4;spacingRight=4;overflow=hidden;rotatable=0;points=[[0,0.5],[1,0.5]];portConstraint=eastwest;rounded=0;shadow=0;html=0;" parent="VMvvwazO_1boUIIF1eFx-59" vertex="1">
          <mxGeometry y="78" width="180" height="26" as="geometry" />
        </mxCell>
        <mxCell id="VMvvwazO_1boUIIF1eFx-63" value="descriptTypeAccount" style="text;align=left;verticalAlign=top;spacingLeft=4;spacingRight=4;overflow=hidden;rotatable=0;points=[[0,0.5],[1,0.5]];portConstraint=eastwest;rounded=0;shadow=0;html=0;" parent="VMvvwazO_1boUIIF1eFx-59" vertex="1">
          <mxGeometry y="104" width="180" height="26" as="geometry" />
        </mxCell>
        <mxCell id="VMvvwazO_1boUIIF1eFx-64" value="creditAmount" style="text;align=left;verticalAlign=top;spacingLeft=4;spacingRight=4;overflow=hidden;rotatable=0;points=[[0,0.5],[1,0.5]];portConstraint=eastwest;rounded=0;shadow=0;html=0;" parent="VMvvwazO_1boUIIF1eFx-59" vertex="1">
          <mxGeometry y="130" width="180" height="26" as="geometry" />
        </mxCell>
        <mxCell id="VMvvwazO_1boUIIF1eFx-65" value="existingAmount" style="text;align=left;verticalAlign=top;spacingLeft=4;spacingRight=4;overflow=hidden;rotatable=0;points=[[0,0.5],[1,0.5]];portConstraint=eastwest;rounded=0;shadow=0;html=0;" parent="VMvvwazO_1boUIIF1eFx-59" vertex="1">
          <mxGeometry y="156" width="180" height="26" as="geometry" />
        </mxCell>
        <mxCell id="VMvvwazO_1boUIIF1eFx-66" value="creditDate" style="text;align=left;verticalAlign=top;spacingLeft=4;spacingRight=4;overflow=hidden;rotatable=0;points=[[0,0.5],[1,0.5]];portConstraint=eastwest;rounded=0;shadow=0;html=0;" parent="VMvvwazO_1boUIIF1eFx-59" vertex="1">
          <mxGeometry y="182" width="180" height="26" as="geometry" />
        </mxCell>
        <mxCell id="VMvvwazO_1boUIIF1eFx-67" value="typeCustomer" style="text;align=left;verticalAlign=top;spacingLeft=4;spacingRight=4;overflow=hidden;rotatable=0;points=[[0,0.5],[1,0.5]];portConstraint=eastwest;rounded=0;shadow=0;html=0;" parent="VMvvwazO_1boUIIF1eFx-59" vertex="1">
          <mxGeometry y="208" width="180" height="26" as="geometry" />
        </mxCell>
        <mxCell id="VMvvwazO_1boUIIF1eFx-71" value="" style="line;html=1;strokeWidth=1;align=left;verticalAlign=middle;spacingTop=-1;spacingLeft=3;spacingRight=3;rotatable=0;labelPosition=right;points=[];portConstraint=eastwest;" parent="VMvvwazO_1boUIIF1eFx-59" vertex="1">
          <mxGeometry y="234" width="180" height="8" as="geometry" />
        </mxCell>
        <mxCell id="VMvvwazO_1boUIIF1eFx-72" value="getAll()" style="text;align=left;verticalAlign=top;spacingLeft=4;spacingRight=4;overflow=hidden;rotatable=0;points=[[0,0.5],[1,0.5]];portConstraint=eastwest;" parent="VMvvwazO_1boUIIF1eFx-59" vertex="1">
          <mxGeometry y="242" width="180" height="26" as="geometry" />
        </mxCell>
        <mxCell id="VMvvwazO_1boUIIF1eFx-73" value="getCreditById()" style="text;align=left;verticalAlign=top;spacingLeft=4;spacingRight=4;overflow=hidden;rotatable=0;points=[[0,0.5],[1,0.5]];portConstraint=eastwest;" parent="VMvvwazO_1boUIIF1eFx-59" vertex="1">
          <mxGeometry y="268" width="180" height="26" as="geometry" />
        </mxCell>
        <mxCell id="VMvvwazO_1boUIIF1eFx-74" value="createCreditPerson()" style="text;align=left;verticalAlign=top;spacingLeft=4;spacingRight=4;overflow=hidden;rotatable=0;points=[[0,0.5],[1,0.5]];portConstraint=eastwest;" parent="VMvvwazO_1boUIIF1eFx-59" vertex="1">
          <mxGeometry y="294" width="180" height="26" as="geometry" />
        </mxCell>
        <mxCell id="VMvvwazO_1boUIIF1eFx-75" value="createCreditCompany()" style="text;align=left;verticalAlign=top;spacingLeft=4;spacingRight=4;overflow=hidden;rotatable=0;points=[[0,0.5],[1,0.5]];portConstraint=eastwest;" parent="VMvvwazO_1boUIIF1eFx-59" vertex="1">
          <mxGeometry y="320" width="180" height="26" as="geometry" />
        </mxCell>
        <mxCell id="VMvvwazO_1boUIIF1eFx-76" value="updateCredit()" style="text;align=left;verticalAlign=top;spacingLeft=4;spacingRight=4;overflow=hidden;rotatable=0;points=[[0,0.5],[1,0.5]];portConstraint=eastwest;" parent="VMvvwazO_1boUIIF1eFx-59" vertex="1">
          <mxGeometry y="346" width="180" height="26" as="geometry" />
        </mxCell>
        <mxCell id="VMvvwazO_1boUIIF1eFx-77" value="deleteCredit()" style="text;align=left;verticalAlign=top;spacingLeft=4;spacingRight=4;overflow=hidden;rotatable=0;points=[[0,0.5],[1,0.5]];portConstraint=eastwest;" parent="VMvvwazO_1boUIIF1eFx-59" vertex="1">
          <mxGeometry y="372" width="180" height="26" as="geometry" />
        </mxCell>
        <mxCell id="VMvvwazO_1boUIIF1eFx-78" value="payCredit()" style="text;align=left;verticalAlign=top;spacingLeft=4;spacingRight=4;overflow=hidden;rotatable=0;points=[[0,0.5],[1,0.5]];portConstraint=eastwest;" parent="VMvvwazO_1boUIIF1eFx-59" vertex="1">
          <mxGeometry y="398" width="180" height="26" as="geometry" />
        </mxCell>
        <mxCell id="VMvvwazO_1boUIIF1eFx-79" value="getAllCreditXCustomerId()" style="text;align=left;verticalAlign=top;spacingLeft=4;spacingRight=4;overflow=hidden;rotatable=0;points=[[0,0.5],[1,0.5]];portConstraint=eastwest;" parent="VMvvwazO_1boUIIF1eFx-59" vertex="1">
          <mxGeometry y="424" width="180" height="26" as="geometry" />
        </mxCell>
        <mxCell id="VMvvwazO_1boUIIF1eFx-82" value="creditcard" style="swimlane;fontStyle=0;align=center;verticalAlign=top;childLayout=stackLayout;horizontal=1;startSize=26;horizontalStack=0;resizeParent=1;resizeLast=0;collapsible=1;marginBottom=0;rounded=0;shadow=0;strokeWidth=1;" parent="WIyWlLk6GJQsqaUBKTNV-1" vertex="1">
          <mxGeometry x="950" y="40" width="180" height="502" as="geometry">
            <mxRectangle x="550" y="140" width="160" height="26" as="alternateBounds" />
          </mxGeometry>
        </mxCell>
        <mxCell id="VMvvwazO_1boUIIF1eFx-83" value="id" style="text;align=left;verticalAlign=top;spacingLeft=4;spacingRight=4;overflow=hidden;rotatable=0;points=[[0,0.5],[1,0.5]];portConstraint=eastwest;" parent="VMvvwazO_1boUIIF1eFx-82" vertex="1">
          <mxGeometry y="26" width="180" height="26" as="geometry" />
        </mxCell>
        <mxCell id="VMvvwazO_1boUIIF1eFx-84" value="customerId" style="text;align=left;verticalAlign=top;spacingLeft=4;spacingRight=4;overflow=hidden;rotatable=0;points=[[0,0.5],[1,0.5]];portConstraint=eastwest;rounded=0;shadow=0;html=0;" parent="VMvvwazO_1boUIIF1eFx-82" vertex="1">
          <mxGeometry y="52" width="180" height="26" as="geometry" />
        </mxCell>
        <mxCell id="VMvvwazO_1boUIIF1eFx-85" value="typeAccount" style="text;align=left;verticalAlign=top;spacingLeft=4;spacingRight=4;overflow=hidden;rotatable=0;points=[[0,0.5],[1,0.5]];portConstraint=eastwest;rounded=0;shadow=0;html=0;" parent="VMvvwazO_1boUIIF1eFx-82" vertex="1">
          <mxGeometry y="78" width="180" height="26" as="geometry" />
        </mxCell>
        <mxCell id="VMvvwazO_1boUIIF1eFx-86" value="descriptTypeAccount" style="text;align=left;verticalAlign=top;spacingLeft=4;spacingRight=4;overflow=hidden;rotatable=0;points=[[0,0.5],[1,0.5]];portConstraint=eastwest;rounded=0;shadow=0;html=0;" parent="VMvvwazO_1boUIIF1eFx-82" vertex="1">
          <mxGeometry y="104" width="180" height="26" as="geometry" />
        </mxCell>
        <mxCell id="VMvvwazO_1boUIIF1eFx-87" value="creditAmount" style="text;align=left;verticalAlign=top;spacingLeft=4;spacingRight=4;overflow=hidden;rotatable=0;points=[[0,0.5],[1,0.5]];portConstraint=eastwest;rounded=0;shadow=0;html=0;" parent="VMvvwazO_1boUIIF1eFx-82" vertex="1">
          <mxGeometry y="130" width="180" height="26" as="geometry" />
        </mxCell>
        <mxCell id="VMvvwazO_1boUIIF1eFx-88" value="existingAmount" style="text;align=left;verticalAlign=top;spacingLeft=4;spacingRight=4;overflow=hidden;rotatable=0;points=[[0,0.5],[1,0.5]];portConstraint=eastwest;rounded=0;shadow=0;html=0;" parent="VMvvwazO_1boUIIF1eFx-82" vertex="1">
          <mxGeometry y="156" width="180" height="26" as="geometry" />
        </mxCell>
        <mxCell id="VMvvwazO_1boUIIF1eFx-89" value="creditDate" style="text;align=left;verticalAlign=top;spacingLeft=4;spacingRight=4;overflow=hidden;rotatable=0;points=[[0,0.5],[1,0.5]];portConstraint=eastwest;rounded=0;shadow=0;html=0;" parent="VMvvwazO_1boUIIF1eFx-82" vertex="1">
          <mxGeometry y="182" width="180" height="26" as="geometry" />
        </mxCell>
        <mxCell id="VMvvwazO_1boUIIF1eFx-100" value="numberCard" style="text;align=left;verticalAlign=top;spacingLeft=4;spacingRight=4;overflow=hidden;rotatable=0;points=[[0,0.5],[1,0.5]];portConstraint=eastwest;rounded=0;shadow=0;html=0;" parent="VMvvwazO_1boUIIF1eFx-82" vertex="1">
          <mxGeometry y="208" width="180" height="26" as="geometry" />
        </mxCell>
        <mxCell id="VMvvwazO_1boUIIF1eFx-90" value="typeCustomer" style="text;align=left;verticalAlign=top;spacingLeft=4;spacingRight=4;overflow=hidden;rotatable=0;points=[[0,0.5],[1,0.5]];portConstraint=eastwest;rounded=0;shadow=0;html=0;" parent="VMvvwazO_1boUIIF1eFx-82" vertex="1">
          <mxGeometry y="234" width="180" height="26" as="geometry" />
        </mxCell>
        <mxCell id="VMvvwazO_1boUIIF1eFx-91" value="" style="line;html=1;strokeWidth=1;align=left;verticalAlign=middle;spacingTop=-1;spacingLeft=3;spacingRight=3;rotatable=0;labelPosition=right;points=[];portConstraint=eastwest;" parent="VMvvwazO_1boUIIF1eFx-82" vertex="1">
          <mxGeometry y="260" width="180" height="8" as="geometry" />
        </mxCell>
        <mxCell id="VMvvwazO_1boUIIF1eFx-92" value="getAll()" style="text;align=left;verticalAlign=top;spacingLeft=4;spacingRight=4;overflow=hidden;rotatable=0;points=[[0,0.5],[1,0.5]];portConstraint=eastwest;" parent="VMvvwazO_1boUIIF1eFx-82" vertex="1">
          <mxGeometry y="268" width="180" height="26" as="geometry" />
        </mxCell>
        <mxCell id="VMvvwazO_1boUIIF1eFx-93" value="getCreditCardById()" style="text;align=left;verticalAlign=top;spacingLeft=4;spacingRight=4;overflow=hidden;rotatable=0;points=[[0,0.5],[1,0.5]];portConstraint=eastwest;" parent="VMvvwazO_1boUIIF1eFx-82" vertex="1">
          <mxGeometry y="294" width="180" height="26" as="geometry" />
        </mxCell>
        <mxCell id="VMvvwazO_1boUIIF1eFx-94" value="createCreditCardPerson()" style="text;align=left;verticalAlign=top;spacingLeft=4;spacingRight=4;overflow=hidden;rotatable=0;points=[[0,0.5],[1,0.5]];portConstraint=eastwest;" parent="VMvvwazO_1boUIIF1eFx-82" vertex="1">
          <mxGeometry y="320" width="180" height="26" as="geometry" />
        </mxCell>
        <mxCell id="VMvvwazO_1boUIIF1eFx-95" value="createCreditCardCompany()" style="text;align=left;verticalAlign=top;spacingLeft=4;spacingRight=4;overflow=hidden;rotatable=0;points=[[0,0.5],[1,0.5]];portConstraint=eastwest;" parent="VMvvwazO_1boUIIF1eFx-82" vertex="1">
          <mxGeometry y="346" width="180" height="26" as="geometry" />
        </mxCell>
        <mxCell id="VMvvwazO_1boUIIF1eFx-96" value="updateCCreditCard()" style="text;align=left;verticalAlign=top;spacingLeft=4;spacingRight=4;overflow=hidden;rotatable=0;points=[[0,0.5],[1,0.5]];portConstraint=eastwest;" parent="VMvvwazO_1boUIIF1eFx-82" vertex="1">
          <mxGeometry y="372" width="180" height="26" as="geometry" />
        </mxCell>
        <mxCell id="VMvvwazO_1boUIIF1eFx-97" value="deleteCreditCard()" style="text;align=left;verticalAlign=top;spacingLeft=4;spacingRight=4;overflow=hidden;rotatable=0;points=[[0,0.5],[1,0.5]];portConstraint=eastwest;" parent="VMvvwazO_1boUIIF1eFx-82" vertex="1">
          <mxGeometry y="398" width="180" height="26" as="geometry" />
        </mxCell>
        <mxCell id="VMvvwazO_1boUIIF1eFx-98" value="payCreditCard()" style="text;align=left;verticalAlign=top;spacingLeft=4;spacingRight=4;overflow=hidden;rotatable=0;points=[[0,0.5],[1,0.5]];portConstraint=eastwest;" parent="VMvvwazO_1boUIIF1eFx-82" vertex="1">
          <mxGeometry y="424" width="180" height="26" as="geometry" />
        </mxCell>
        <mxCell id="VMvvwazO_1boUIIF1eFx-99" value="consumeCreditCard()" style="text;align=left;verticalAlign=top;spacingLeft=4;spacingRight=4;overflow=hidden;rotatable=0;points=[[0,0.5],[1,0.5]];portConstraint=eastwest;" parent="VMvvwazO_1boUIIF1eFx-82" vertex="1">
          <mxGeometry y="450" width="180" height="26" as="geometry" />
        </mxCell>
        <mxCell id="VMvvwazO_1boUIIF1eFx-101" value="getAllCreditCardXCustomerId()" style="text;align=left;verticalAlign=top;spacingLeft=4;spacingRight=4;overflow=hidden;rotatable=0;points=[[0,0.5],[1,0.5]];portConstraint=eastwest;" parent="VMvvwazO_1boUIIF1eFx-82" vertex="1">
          <mxGeometry y="476" width="180" height="26" as="geometry" />
        </mxCell>
        <mxCell id="VMvvwazO_1boUIIF1eFx-102" value="transaction" style="swimlane;fontStyle=0;align=center;verticalAlign=top;childLayout=stackLayout;horizontal=1;startSize=26;horizontalStack=0;resizeParent=1;resizeLast=0;collapsible=1;marginBottom=0;rounded=0;shadow=0;strokeWidth=1;" parent="WIyWlLk6GJQsqaUBKTNV-1" vertex="1">
          <mxGeometry x="1151" y="40" width="180" height="440" as="geometry">
            <mxRectangle x="550" y="140" width="160" height="26" as="alternateBounds" />
          </mxGeometry>
        </mxCell>
        <mxCell id="VMvvwazO_1boUIIF1eFx-103" value="id" style="text;align=left;verticalAlign=top;spacingLeft=4;spacingRight=4;overflow=hidden;rotatable=0;points=[[0,0.5],[1,0.5]];portConstraint=eastwest;" parent="VMvvwazO_1boUIIF1eFx-102" vertex="1">
          <mxGeometry y="26" width="180" height="26" as="geometry" />
        </mxCell>
        <mxCell id="VMvvwazO_1boUIIF1eFx-104" value="productType" style="text;align=left;verticalAlign=top;spacingLeft=4;spacingRight=4;overflow=hidden;rotatable=0;points=[[0,0.5],[1,0.5]];portConstraint=eastwest;rounded=0;shadow=0;html=0;" parent="VMvvwazO_1boUIIF1eFx-102" vertex="1">
          <mxGeometry y="52" width="180" height="26" as="geometry" />
        </mxCell>
        <mxCell id="VMvvwazO_1boUIIF1eFx-105" value="productId" style="text;align=left;verticalAlign=top;spacingLeft=4;spacingRight=4;overflow=hidden;rotatable=0;points=[[0,0.5],[1,0.5]];portConstraint=eastwest;rounded=0;shadow=0;html=0;" parent="VMvvwazO_1boUIIF1eFx-102" vertex="1">
          <mxGeometry y="78" width="180" height="26" as="geometry" />
        </mxCell>
        <mxCell id="VMvvwazO_1boUIIF1eFx-106" value="customerId" style="text;align=left;verticalAlign=top;spacingLeft=4;spacingRight=4;overflow=hidden;rotatable=0;points=[[0,0.5],[1,0.5]];portConstraint=eastwest;rounded=0;shadow=0;html=0;" parent="VMvvwazO_1boUIIF1eFx-102" vertex="1">
          <mxGeometry y="104" width="180" height="26" as="geometry" />
        </mxCell>
        <mxCell id="VMvvwazO_1boUIIF1eFx-107" value="transactionType" style="text;align=left;verticalAlign=top;spacingLeft=4;spacingRight=4;overflow=hidden;rotatable=0;points=[[0,0.5],[1,0.5]];portConstraint=eastwest;rounded=0;shadow=0;html=0;" parent="VMvvwazO_1boUIIF1eFx-102" vertex="1">
          <mxGeometry y="130" width="180" height="26" as="geometry" />
        </mxCell>
        <mxCell id="VMvvwazO_1boUIIF1eFx-108" value="amount" style="text;align=left;verticalAlign=top;spacingLeft=4;spacingRight=4;overflow=hidden;rotatable=0;points=[[0,0.5],[1,0.5]];portConstraint=eastwest;rounded=0;shadow=0;html=0;" parent="VMvvwazO_1boUIIF1eFx-102" vertex="1">
          <mxGeometry y="156" width="180" height="26" as="geometry" />
        </mxCell>
        <mxCell id="VMvvwazO_1boUIIF1eFx-109" value="transactionDate" style="text;align=left;verticalAlign=top;spacingLeft=4;spacingRight=4;overflow=hidden;rotatable=0;points=[[0,0.5],[1,0.5]];portConstraint=eastwest;rounded=0;shadow=0;html=0;" parent="VMvvwazO_1boUIIF1eFx-102" vertex="1">
          <mxGeometry y="182" width="180" height="26" as="geometry" />
        </mxCell>
        <mxCell id="VMvvwazO_1boUIIF1eFx-110" value="customerType" style="text;align=left;verticalAlign=top;spacingLeft=4;spacingRight=4;overflow=hidden;rotatable=0;points=[[0,0.5],[1,0.5]];portConstraint=eastwest;rounded=0;shadow=0;html=0;" parent="VMvvwazO_1boUIIF1eFx-102" vertex="1">
          <mxGeometry y="208" width="180" height="26" as="geometry" />
        </mxCell>
        <mxCell id="VMvvwazO_1boUIIF1eFx-112" value="" style="line;html=1;strokeWidth=1;align=left;verticalAlign=middle;spacingTop=-1;spacingLeft=3;spacingRight=3;rotatable=0;labelPosition=right;points=[];portConstraint=eastwest;" parent="VMvvwazO_1boUIIF1eFx-102" vertex="1">
          <mxGeometry y="234" width="180" height="8" as="geometry" />
        </mxCell>
        <mxCell id="VMvvwazO_1boUIIF1eFx-113" value="getAll()" style="text;align=left;verticalAlign=top;spacingLeft=4;spacingRight=4;overflow=hidden;rotatable=0;points=[[0,0.5],[1,0.5]];portConstraint=eastwest;" parent="VMvvwazO_1boUIIF1eFx-102" vertex="1">
          <mxGeometry y="242" width="180" height="26" as="geometry" />
        </mxCell>
        <mxCell id="VMvvwazO_1boUIIF1eFx-114" value="getTransactionById()" style="text;align=left;verticalAlign=top;spacingLeft=4;spacingRight=4;overflow=hidden;rotatable=0;points=[[0,0.5],[1,0.5]];portConstraint=eastwest;" parent="VMvvwazO_1boUIIF1eFx-102" vertex="1">
          <mxGeometry y="268" width="180" height="26" as="geometry" />
        </mxCell>
        <mxCell id="VMvvwazO_1boUIIF1eFx-115" value="getTransactionByCustomerId()" style="text;align=left;verticalAlign=top;spacingLeft=4;spacingRight=4;overflow=hidden;rotatable=0;points=[[0,0.5],[1,0.5]];portConstraint=eastwest;" parent="VMvvwazO_1boUIIF1eFx-102" vertex="1">
          <mxGeometry y="294" width="180" height="26" as="geometry" />
        </mxCell>
        <mxCell id="VMvvwazO_1boUIIF1eFx-116" value="createTransaction()" style="text;align=left;verticalAlign=top;spacingLeft=4;spacingRight=4;overflow=hidden;rotatable=0;points=[[0,0.5],[1,0.5]];portConstraint=eastwest;" parent="VMvvwazO_1boUIIF1eFx-102" vertex="1">
          <mxGeometry y="320" width="180" height="26" as="geometry" />
        </mxCell>
        <mxCell id="VMvvwazO_1boUIIF1eFx-117" value="updateTransaction()" style="text;align=left;verticalAlign=top;spacingLeft=4;spacingRight=4;overflow=hidden;rotatable=0;points=[[0,0.5],[1,0.5]];portConstraint=eastwest;" parent="VMvvwazO_1boUIIF1eFx-102" vertex="1">
          <mxGeometry y="346" width="180" height="26" as="geometry" />
        </mxCell>
        <mxCell id="VMvvwazO_1boUIIF1eFx-118" value="deleteTransaction()" style="text;align=left;verticalAlign=top;spacingLeft=4;spacingRight=4;overflow=hidden;rotatable=0;points=[[0,0.5],[1,0.5]];portConstraint=eastwest;" parent="VMvvwazO_1boUIIF1eFx-102" vertex="1">
          <mxGeometry y="372" width="180" height="26" as="geometry" />
        </mxCell>
        <mxCell id="VMvvwazO_1boUIIF1eFx-119" value="getAllXProductId()" style="text;align=left;verticalAlign=top;spacingLeft=4;spacingRight=4;overflow=hidden;rotatable=0;points=[[0,0.5],[1,0.5]];portConstraint=eastwest;" parent="VMvvwazO_1boUIIF1eFx-102" vertex="1">
          <mxGeometry y="398" width="180" height="26" as="geometry" />
        </mxCell>
        <mxCell id="VMvvwazO_1boUIIF1eFx-122" value="DB&lt;br&gt;customers" style="shape=cylinder3;whiteSpace=wrap;html=1;boundedLbl=1;backgroundOutline=1;size=15;" parent="WIyWlLk6GJQsqaUBKTNV-1" vertex="1">
          <mxGeometry x="230" y="-140" width="90" height="120" as="geometry" />
        </mxCell>
        <mxCell id="VMvvwazO_1boUIIF1eFx-123" value="DB&lt;br&gt;accounts" style="shape=cylinder3;whiteSpace=wrap;html=1;boundedLbl=1;backgroundOutline=1;size=15;" parent="WIyWlLk6GJQsqaUBKTNV-1" vertex="1">
          <mxGeometry x="570" y="-140" width="90" height="120" as="geometry" />
        </mxCell>
        <mxCell id="VMvvwazO_1boUIIF1eFx-124" value="DB&lt;br&gt;credits" style="shape=cylinder3;whiteSpace=wrap;html=1;boundedLbl=1;backgroundOutline=1;size=15;" parent="WIyWlLk6GJQsqaUBKTNV-1" vertex="1">
          <mxGeometry x="900" y="-140" width="90" height="120" as="geometry" />
        </mxCell>
        <mxCell id="VMvvwazO_1boUIIF1eFx-125" value="DB&lt;br&gt;transactions" style="shape=cylinder3;whiteSpace=wrap;html=1;boundedLbl=1;backgroundOutline=1;size=15;" parent="WIyWlLk6GJQsqaUBKTNV-1" vertex="1">
          <mxGeometry x="1196" y="-140" width="90" height="120" as="geometry" />
        </mxCell>
        <mxCell id="VMvvwazO_1boUIIF1eFx-126" value="" style="endArrow=none;html=1;rounded=0;exitX=0.5;exitY=0;exitDx=0;exitDy=0;" parent="WIyWlLk6GJQsqaUBKTNV-1" source="zkfFHV4jXpPFQw0GAbJ--0" edge="1">
          <mxGeometry width="50" height="50" relative="1" as="geometry">
            <mxPoint x="170" y="90" as="sourcePoint" />
            <mxPoint x="270" y="-20" as="targetPoint" />
          </mxGeometry>
        </mxCell>
        <mxCell id="VMvvwazO_1boUIIF1eFx-127" value="" style="endArrow=none;html=1;rounded=0;entryX=0.5;entryY=1;entryDx=0;entryDy=0;entryPerimeter=0;exitX=0.5;exitY=0;exitDx=0;exitDy=0;" parent="WIyWlLk6GJQsqaUBKTNV-1" source="zkfFHV4jXpPFQw0GAbJ--17" target="VMvvwazO_1boUIIF1eFx-122" edge="1">
          <mxGeometry width="50" height="50" relative="1" as="geometry">
            <mxPoint x="390" y="30" as="sourcePoint" />
            <mxPoint x="440" y="-20" as="targetPoint" />
          </mxGeometry>
        </mxCell>
        <mxCell id="VMvvwazO_1boUIIF1eFx-128" value="" style="endArrow=none;html=1;rounded=0;entryX=0.5;entryY=1;entryDx=0;entryDy=0;entryPerimeter=0;" parent="WIyWlLk6GJQsqaUBKTNV-1" source="VMvvwazO_1boUIIF1eFx-36" target="VMvvwazO_1boUIIF1eFx-123" edge="1">
          <mxGeometry width="50" height="50" relative="1" as="geometry">
            <mxPoint x="490" y="-10" as="sourcePoint" />
            <mxPoint x="540" y="-60" as="targetPoint" />
          </mxGeometry>
        </mxCell>
        <mxCell id="VMvvwazO_1boUIIF1eFx-129" value="" style="endArrow=none;html=1;rounded=0;entryX=0.5;entryY=1;entryDx=0;entryDy=0;entryPerimeter=0;" parent="WIyWlLk6GJQsqaUBKTNV-1" target="VMvvwazO_1boUIIF1eFx-124" edge="1">
          <mxGeometry width="50" height="50" relative="1" as="geometry">
            <mxPoint x="840" y="40" as="sourcePoint" />
            <mxPoint x="890" y="-10" as="targetPoint" />
          </mxGeometry>
        </mxCell>
        <mxCell id="VMvvwazO_1boUIIF1eFx-130" value="" style="endArrow=none;html=1;rounded=0;exitX=0.5;exitY=0;exitDx=0;exitDy=0;entryX=0.5;entryY=1;entryDx=0;entryDy=0;entryPerimeter=0;" parent="WIyWlLk6GJQsqaUBKTNV-1" source="VMvvwazO_1boUIIF1eFx-82" target="VMvvwazO_1boUIIF1eFx-124" edge="1">
          <mxGeometry width="50" height="50" relative="1" as="geometry">
            <mxPoint x="1050" y="20" as="sourcePoint" />
            <mxPoint x="1100" y="-30" as="targetPoint" />
          </mxGeometry>
        </mxCell>
        <mxCell id="VMvvwazO_1boUIIF1eFx-131" value="" style="endArrow=none;html=1;rounded=0;exitX=0.5;exitY=0;exitDx=0;exitDy=0;entryX=0.5;entryY=1;entryDx=0;entryDy=0;entryPerimeter=0;" parent="WIyWlLk6GJQsqaUBKTNV-1" source="VMvvwazO_1boUIIF1eFx-102" target="VMvvwazO_1boUIIF1eFx-125" edge="1">
          <mxGeometry width="50" height="50" relative="1" as="geometry">
            <mxPoint x="1100" y="-20" as="sourcePoint" />
            <mxPoint x="1150" y="-70" as="targetPoint" />
          </mxGeometry>
        </mxCell>
        <mxCell id="VMvvwazO_1boUIIF1eFx-132" value="MS&lt;br&gt;bootcamp_customers" style="ellipse;whiteSpace=wrap;html=1;" parent="WIyWlLk6GJQsqaUBKTNV-1" vertex="1">
          <mxGeometry x="182.5" y="-280" width="185" height="100" as="geometry" />
        </mxCell>
        <mxCell id="VMvvwazO_1boUIIF1eFx-133" value="MS&lt;br&gt;bootcamp_bankaccounts" style="ellipse;whiteSpace=wrap;html=1;" parent="WIyWlLk6GJQsqaUBKTNV-1" vertex="1">
          <mxGeometry x="535" y="-280" width="185" height="100" as="geometry" />
        </mxCell>
        <mxCell id="VMvvwazO_1boUIIF1eFx-134" value="MS&lt;br&gt;bootcamp_credits" style="ellipse;whiteSpace=wrap;html=1;" parent="WIyWlLk6GJQsqaUBKTNV-1" vertex="1">
          <mxGeometry x="852.5" y="-280" width="185" height="100" as="geometry" />
        </mxCell>
        <mxCell id="VMvvwazO_1boUIIF1eFx-135" value="MS&lt;br&gt;bootcamp_transactions" style="ellipse;whiteSpace=wrap;html=1;" parent="WIyWlLk6GJQsqaUBKTNV-1" vertex="1">
          <mxGeometry x="1148.5" y="-280" width="185" height="100" as="geometry" />
        </mxCell>
        <mxCell id="VMvvwazO_1boUIIF1eFx-136" value="" style="endArrow=none;html=1;rounded=0;entryX=0.486;entryY=1;entryDx=0;entryDy=0;entryPerimeter=0;exitX=0.5;exitY=0;exitDx=0;exitDy=0;exitPerimeter=0;" parent="WIyWlLk6GJQsqaUBKTNV-1" source="VMvvwazO_1boUIIF1eFx-122" target="VMvvwazO_1boUIIF1eFx-132" edge="1">
          <mxGeometry width="50" height="50" relative="1" as="geometry">
            <mxPoint x="210" y="-140" as="sourcePoint" />
            <mxPoint x="260" y="-190" as="targetPoint" />
          </mxGeometry>
        </mxCell>
        <mxCell id="VMvvwazO_1boUIIF1eFx-137" value="" style="endArrow=none;html=1;rounded=0;entryX=0.5;entryY=1;entryDx=0;entryDy=0;exitX=0.5;exitY=0;exitDx=0;exitDy=0;exitPerimeter=0;" parent="WIyWlLk6GJQsqaUBKTNV-1" source="VMvvwazO_1boUIIF1eFx-124" target="VMvvwazO_1boUIIF1eFx-134" edge="1">
          <mxGeometry width="50" height="50" relative="1" as="geometry">
            <mxPoint x="885.09" y="-130" as="sourcePoint" />
            <mxPoint x="880.0000000000001" y="-190" as="targetPoint" />
          </mxGeometry>
        </mxCell>
        <mxCell id="VMvvwazO_1boUIIF1eFx-138" value="" style="endArrow=none;html=1;rounded=0;entryX=0.5;entryY=1;entryDx=0;entryDy=0;exitX=0.5;exitY=0;exitDx=0;exitDy=0;exitPerimeter=0;" parent="WIyWlLk6GJQsqaUBKTNV-1" source="VMvvwazO_1boUIIF1eFx-125" target="VMvvwazO_1boUIIF1eFx-135" edge="1">
          <mxGeometry width="50" height="50" relative="1" as="geometry">
            <mxPoint x="1255.0900000000001" y="-130" as="sourcePoint" />
            <mxPoint x="1250" y="-190" as="targetPoint" />
          </mxGeometry>
        </mxCell>
        <mxCell id="VMvvwazO_1boUIIF1eFx-139" value="" style="endArrow=none;html=1;rounded=0;entryX=0.5;entryY=1;entryDx=0;entryDy=0;exitX=0.5;exitY=0;exitDx=0;exitDy=0;exitPerimeter=0;" parent="WIyWlLk6GJQsqaUBKTNV-1" source="VMvvwazO_1boUIIF1eFx-123" target="VMvvwazO_1boUIIF1eFx-133" edge="1">
          <mxGeometry width="50" height="50" relative="1" as="geometry">
            <mxPoint x="545.09" y="-140" as="sourcePoint" />
            <mxPoint x="540.0000000000001" y="-200" as="targetPoint" />
          </mxGeometry>
        </mxCell>
        <mxCell id="yGhisUAnwiyPtjzu5V5F-0" value="MS&lt;br&gt;bootcamp_reports" style="ellipse;whiteSpace=wrap;html=1;" vertex="1" parent="WIyWlLk6GJQsqaUBKTNV-1">
          <mxGeometry x="680" y="-470" width="185" height="100" as="geometry" />
        </mxCell>
        <mxCell id="yGhisUAnwiyPtjzu5V5F-1" value="" style="endArrow=none;html=1;rounded=0;entryX=0.005;entryY=0.44;entryDx=0;entryDy=0;entryPerimeter=0;exitX=0.808;exitY=0.13;exitDx=0;exitDy=0;exitPerimeter=0;" edge="1" parent="WIyWlLk6GJQsqaUBKTNV-1" source="VMvvwazO_1boUIIF1eFx-132" target="yGhisUAnwiyPtjzu5V5F-0">
          <mxGeometry width="50" height="50" relative="1" as="geometry">
            <mxPoint x="680" y="-100" as="sourcePoint" />
            <mxPoint x="730" y="-150" as="targetPoint" />
            <Array as="points">
              <mxPoint x="520" y="-360" />
            </Array>
          </mxGeometry>
        </mxCell>
        <mxCell id="yGhisUAnwiyPtjzu5V5F-2" value="" style="endArrow=none;html=1;rounded=0;entryX=0.324;entryY=1.02;entryDx=0;entryDy=0;entryPerimeter=0;exitX=0.708;exitY=0.05;exitDx=0;exitDy=0;exitPerimeter=0;" edge="1" parent="WIyWlLk6GJQsqaUBKTNV-1" source="VMvvwazO_1boUIIF1eFx-133" target="yGhisUAnwiyPtjzu5V5F-0">
          <mxGeometry width="50" height="50" relative="1" as="geometry">
            <mxPoint x="680" y="-100" as="sourcePoint" />
            <mxPoint x="730" y="-150" as="targetPoint" />
          </mxGeometry>
        </mxCell>
        <mxCell id="yGhisUAnwiyPtjzu5V5F-3" value="" style="endArrow=none;html=1;rounded=0;entryX=1;entryY=1;entryDx=0;entryDy=0;" edge="1" parent="WIyWlLk6GJQsqaUBKTNV-1" source="VMvvwazO_1boUIIF1eFx-134" target="yGhisUAnwiyPtjzu5V5F-0">
          <mxGeometry width="50" height="50" relative="1" as="geometry">
            <mxPoint x="680" y="-100" as="sourcePoint" />
            <mxPoint x="730" y="-150" as="targetPoint" />
          </mxGeometry>
        </mxCell>
        <mxCell id="yGhisUAnwiyPtjzu5V5F-4" value="" style="endArrow=none;html=1;rounded=0;exitX=0.984;exitY=0.37;exitDx=0;exitDy=0;exitPerimeter=0;entryX=0.403;entryY=-0.03;entryDx=0;entryDy=0;entryPerimeter=0;" edge="1" parent="WIyWlLk6GJQsqaUBKTNV-1" source="yGhisUAnwiyPtjzu5V5F-0" target="VMvvwazO_1boUIIF1eFx-135">
          <mxGeometry width="50" height="50" relative="1" as="geometry">
            <mxPoint x="1040" y="-360" as="sourcePoint" />
            <mxPoint x="1090" y="-410" as="targetPoint" />
          </mxGeometry>
        </mxCell>
      </root>
    </mxGraphModel>
  </diagram>
</mxfile>
